<svg width="13.500000" height="23.100098" viewBox="0 0 13.5 23.1001" fill="none" xmlns="http://www.w3.org/2000/svg" xmlns:xlink="http://www.w3.org/1999/xlink">
	<desc>
			Created with Pixso.
	</desc>
	<defs/>
	<path id="Vector" d="M6.50977 22.3501C5.60986 22.3501 5.16016 22.3501 4.84473 22.1206C4.74268 22.0469 4.65332 21.957 4.5791 21.8555C4.3501 21.54 4.3501 21.0898 4.3501 20.1899L4.3501 13.3501L2.8501 13.3501C2.00732 13.3501 1.58594 13.3501 1.2832 13.1479C1.15234 13.0601 1.03955 12.9478 0.952148 12.8169C0.75 12.5142 0.75 12.0928 0.75 11.25C0.75 10.4072 0.75 9.98584 0.952148 9.68311C1.03955 9.55225 1.15234 9.43994 1.2832 9.35205C1.58594 9.1499 2.00732 9.1499 2.8501 9.1499L4.3501 9.1499L4.3501 7.2832C4.3501 5.10693 4.3501 4.01904 4.74365 3.1748C5.16064 2.28027 5.87988 1.56104 6.7749 1.14355C7.61865 0.75 8.70703 0.75 10.8833 0.75C11.5054 0.75 11.8159 0.75 12.0571 0.862305C12.313 0.981445 12.5186 1.18701 12.6377 1.44287C12.75 1.68408 12.75 1.99463 12.75 2.6167L12.75 3.1499C12.75 3.70898 12.75 3.98877 12.6587 4.20898C12.5366 4.50342 12.3032 4.73682 12.0093 4.85889C11.7886 4.9502 11.5093 4.9502 10.9502 4.9502C10.3911 4.9502 10.1113 4.9502 9.89062 5.0415C9.59668 5.16309 9.36328 5.39697 9.24121 5.69092C9.1499 5.91113 9.1499 6.19092 9.1499 6.75L9.1499 9.1499L10.6499 9.1499C11.4927 9.1499 11.9141 9.1499 12.2168 9.35205C12.3477 9.43994 12.4604 9.55225 12.5479 9.68311C12.75 9.98584 12.75 10.4072 12.75 11.25C12.75 12.0928 12.75 12.5142 12.5479 12.8169C12.4604 12.9478 12.3477 13.0601 12.2168 13.1479C11.9141 13.3501 11.4927 13.3501 10.6499 13.3501L9.1499 13.3501L9.1499 20.1899C9.1499 21.0898 9.1499 21.54 8.9209 21.8555C8.84668 21.957 8.75732 22.0469 8.65527 22.1206C8.33984 22.3501 7.89014 22.3501 6.99023 22.3501L6.50977 22.3501Z" stroke="#0C0C0C" stroke-opacity="1.000000" stroke-width="1.500000" stroke-linejoin="round"/>
</svg>
