<svg width="24.225098" height="24.225098" viewBox="0 0 24.2251 24.2251" fill="none" xmlns="http://www.w3.org/2000/svg" xmlns:xlink="http://www.w3.org/1999/xlink">
	<desc>
			Created with Pixso.
	</desc>
	<defs/>
	<path id="Vector" d="M10.8428 10.2085L10.8428 17.8252L10.8428 10.2085L12.875 10.2085C14.9375 10.2085 15.9683 10.2085 16.6914 10.7339C16.9248 10.9033 17.1299 11.1084 17.2998 11.3423C17.8247 12.0649 17.8247 13.0962 17.8247 15.1587L17.8247 17.8252M6.3999 10.2085L6.3999 17.8252" stroke="#0C0C0C" stroke-opacity="1.000000" stroke-width="1.375000" stroke-linejoin="round"/>
	<path id="Vector" d="M7.66992 6.40039C7.66992 7.10156 7.10156 7.66992 6.40039 7.66992C5.69922 7.66992 5.13086 7.10156 5.13086 6.40039C5.13086 5.69922 5.69922 5.13086 6.40039 5.13086C7.10156 5.13086 7.66992 5.69922 7.66992 6.40039Z" fill="#0C0C0C" fill-opacity="1.000000" fill-rule="nonzero"/>
	<path id="Vector" d="M16.9375 0.6875C19.6875 0.6875 21.062 0.6875 22.0259 1.3877C22.3374 1.61377 22.6108 1.8877 22.8374 2.19873C23.5376 3.1626 23.5376 4.5376 23.5376 7.2876L23.5376 16.9375C23.5376 19.6875 23.5376 21.062 22.8374 22.0259C22.6108 22.3374 22.3374 22.6108 22.0259 22.8374C21.062 23.5376 19.6875 23.5376 16.9375 23.5376L7.2876 23.5376C4.5376 23.5376 3.1626 23.5376 2.19873 22.8374C1.8877 22.6108 1.61377 22.3374 1.3877 22.0259C0.6875 21.062 0.6875 19.6875 0.6875 16.9375L0.6875 7.2876C0.6875 4.5376 0.6875 3.1626 1.3877 2.19873C1.61377 1.8877 1.8877 1.61377 2.19873 1.3877C3.1626 0.6875 4.5376 0.6875 7.2876 0.6875L16.9375 0.6875Z" stroke="#0C0C0C" stroke-opacity="1.000000" stroke-width="1.375000" stroke-linejoin="round"/>
</svg>
