<svg width="24.754395" height="24.754395" viewBox="0 0 24.7544 24.7544" fill="none" xmlns="http://www.w3.org/2000/svg" xmlns:xlink="http://www.w3.org/1999/xlink">
	<desc>
			Created with Pixso.
	</desc>
	<defs/>
	<path id="Vector" d="M20.6289 5.39502C20.6289 6.09619 20.0605 6.66455 19.3594 6.66455C18.6582 6.66455 18.0898 6.09619 18.0898 5.39502C18.0898 4.69385 18.6582 4.12549 19.3594 4.12549C20.0605 4.12549 20.6289 4.69385 20.6289 5.39502Z" fill="#292556" fill-opacity="1.000000" fill-rule="nonzero"/>
	<path id="Vector" d="M19.3594 6.66455C20.0605 6.66455 20.6289 6.09619 20.6289 5.39502C20.6289 4.69385 20.0605 4.12549 19.3594 4.12549C18.6582 4.12549 18.0898 4.69385 18.0898 5.39502C18.0898 6.09619 18.6582 6.66455 19.3594 6.66455Z" fill="#0C0C0C" fill-opacity="1.000000" fill-rule="evenodd"/>
	<path id="Vector" d="M14.6621 0.952148C18.4702 0.952148 20.374 0.952148 21.709 1.92188C22.1401 2.23535 22.519 2.61426 22.8325 3.04541C23.8022 4.37988 23.8022 6.28418 23.8022 10.0923L23.8022 14.6621C23.8022 18.4702 23.8022 20.374 22.8325 21.709C22.519 22.1401 22.1401 22.519 21.709 22.8325C20.374 23.8022 18.4702 23.8022 14.6621 23.8022L10.0923 23.8022C6.28418 23.8022 4.37988 23.8022 3.04541 22.8325C2.61426 22.519 2.23535 22.1401 1.92188 21.709C0.952148 20.374 0.952148 18.4702 0.952148 14.6621L0.952148 10.0923C0.952148 6.28418 0.952148 4.37988 1.92188 3.04541C2.23535 2.61426 2.61426 2.23535 3.04541 1.92188C4.37988 0.952148 6.28418 0.952148 10.0923 0.952148L14.6621 0.952148ZM12.377 17.4551C9.57275 17.4551 7.29932 15.1816 7.29932 12.377C7.29932 9.57275 9.57275 7.29932 12.377 7.29932C15.1816 7.29932 17.4551 9.57275 17.4551 12.377C17.4551 15.1816 15.1816 17.4551 12.377 17.4551Z" stroke="#0C0C0C" stroke-opacity="1.000000" stroke-width="1.904167" stroke-linejoin="round"/>
</svg>
