<svg width="17.000000" height="17.000000" viewBox="0 0 17 17" fill="none" xmlns="http://www.w3.org/2000/svg" xmlns:xlink="http://www.w3.org/1999/xlink">
	<desc>
			Created with Pixso.
	</desc>
	<defs/>
	<path id="Vector" d="M16.69 6.59L12.8 10.38L13.72 15.74C13.76 15.98 13.66 16.21 13.47 16.36C13.36 16.43 13.23 16.47 13.1 16.47C13 16.47 12.9 16.45 12.81 16.4L8 13.87L3.18 16.4C2.97 16.51 2.72 16.5 2.52 16.35C2.33 16.21 2.23 15.98 2.27 15.74L3.19 10.38L-0.7 6.59C-0.87 6.42 -0.93 6.17 -0.86 5.95C-0.78 5.72 -0.59 5.56 -0.35 5.52L5.03 4.74L7.43 -0.14C7.64 -0.56 8.34 -0.56 8.56 -0.14L10.96 4.74L16.34 5.52C16.58 5.56 16.77 5.72 16.85 5.95C16.92 6.17 16.86 6.42 16.69 6.59Z" fill="#FBFBFB" fill-opacity="1.000000" fill-rule="nonzero"/>
</svg>
