<svg width="15.000000" height="15.000000" viewBox="0 0 15 15" fill="none" xmlns="http://www.w3.org/2000/svg" xmlns:xlink="http://www.w3.org/1999/xlink">
	<desc>
			Created with Pixso.
	</desc>
	<defs/>
	<path id="Vector" d="M6.94775 14.7763C11.2715 14.7763 14.7764 11.2712 14.7764 6.94736C14.7764 2.62355 11.2715 -0.881592 6.94775 -0.881592C2.62402 -0.881592 -0.881348 2.62355 -0.881348 6.94736C-0.881348 11.2712 2.62402 14.7763 6.94775 14.7763ZM9.78223 5.76725L6.57031 8.97913Q6.39404 9.15552 6.14453 9.15552Q5.89502 9.15552 5.71875 8.97913L4.11279 7.37319C3.87451 7.13472 3.87451 6.75999 4.11279 6.52151C4.35107 6.28304 4.72607 6.28304 4.96436 6.52151L6.14453 7.70161L8.93066 4.91557C9.16895 4.67711 9.54395 4.67711 9.78223 4.91557C10.021 5.15405 10.021 5.52879 9.78223 5.76725Z" clip-rule="evenodd" fill="#64CCC5" fill-opacity="1.000000" fill-rule="evenodd"/>
</svg>
