<svg width="154.551758" height="39.971436" viewBox="0 0 154.552 39.9714" fill="none" xmlns="http://www.w3.org/2000/svg" xmlns:xlink="http://www.w3.org/1999/xlink">
	<desc>
			Created with Pixso.
	</desc>
	<defs>
		<clipPath id="clip121_1281">
			<rect id="logo" width="40.434093" height="39.971428" fill="white" fill-opacity="0"/>
		</clipPath>
	</defs>
	<path id="Canvix" d="M131.099 10.6317C131.099 11.7816 130.103 12.7191 128.873 12.7191C127.642 12.7191 126.639 11.7816 126.639 10.6317C126.639 9.46716 127.642 8.52966 128.873 8.52966C130.103 8.52966 131.099 9.46716 131.099 10.6317ZM62.0278 9.28406C66.8618 9.28406 70.5898 12.0966 71.2637 16.9452L67.2793 16.9452C66.8179 14.3378 64.7378 12.8363 62.0864 12.8363C58.5195 12.8363 56.0073 15.5756 56.0073 20.4974C56.0073 25.4999 58.5415 28.1512 62.0791 28.1512C64.6865 28.1512 66.7739 26.7157 67.2793 24.1595L71.2637 24.1815C70.6558 28.349 67.2134 31.7035 62.0278 31.7035C56.271 31.7035 52.0303 27.536 52.0303 20.4974C52.0303 13.4442 56.3223 9.28406 62.0278 9.28406ZM84.2335 29.1547C83.5304 30.5316 81.9996 31.7328 79.4288 31.7328C76.3087 31.7328 73.9577 30.0262 73.9577 26.8109C73.9577 23.1268 76.9899 22.1747 80.1686 21.8378C83.0543 21.5302 84.2189 21.4716 84.2189 20.3656L84.2189 20.2997C84.2189 18.6957 83.2374 17.7802 81.443 17.7802C79.5607 17.7802 78.4767 18.7396 78.0885 19.8529L74.4923 19.3402C75.3419 16.3593 77.986 14.8285 81.421 14.8285C84.5485 14.8285 88.0714 16.1249 88.0714 20.4535L88.0714 31.4032L84.3654 31.4032L84.3654 29.1547L84.2335 29.1547ZM99.2808 18.0878C97.2447 18.0878 95.8165 19.4501 95.8165 21.8158L95.8165 31.4032L91.9639 31.4032L91.9639 15.0409L95.648 15.0409L95.648 17.8168L95.8384 17.8168C96.5855 16.0004 98.2701 14.8285 100.716 14.8285C104.093 14.8285 106.334 17.0624 106.319 20.9808L106.319 31.4032L102.467 31.4032L102.467 21.5814C102.467 19.3988 101.273 18.0878 99.2808 18.0878ZM120.169 15.0409L124.271 15.0409L118.448 31.4032L114.186 31.4032L108.356 15.0409L112.472 15.0409L116.229 27.1918L116.398 27.1918L120.169 15.0409ZM130.792 31.4032L126.939 31.4032L126.939 15.0409L130.792 15.0409L130.792 31.4032ZM133.821 15.0409L137.908 15.0409L141.211 21.0834L144.566 15.0409L148.645 15.0409L143.716 23.222L148.733 31.4032L144.676 31.4032L141.211 25.5145L137.784 31.4032L133.689 31.4032L138.677 23.222L133.821 15.0409ZM77.671 26.745C77.671 28.1659 78.8283 28.8983 80.4323 28.8983C82.754 28.8983 84.2262 27.3529 84.2262 25.5365L84.2262 23.6029C83.7282 24.0131 81.6994 24.2621 80.6886 24.4012C78.9601 24.6503 77.671 25.2655 77.671 26.745Z" fill="#FFFFFF" fill-opacity="1.000000" fill-rule="evenodd"/>
	<rect id="logo" width="40.434093" height="39.971428" fill="#FFFFFF" fill-opacity="0"/>
	<g clip-path="url(#clip121_1281)">
		<path id="Vector" d="M20.2646 16.3333C19.5068 16.3541 18.7666 16.4457 18.0488 16.6005C15.0811 17.444 12.9023 20.1527 12.9023 23.3551C12.9023 27.2297 16.0908 30.382 20.0107 30.382C23.9297 30.382 27.1191 27.2297 27.1191 23.3551C27.1191 19.5648 24.0674 16.4662 20.2646 16.3333Z" fill="#FBFBFB" fill-opacity="1.000000" fill-rule="nonzero"/>
		<path id="Vector" d="M34.3066 5.85413C30.4883 2.0791 25.4102 0 20.0098 0C14.6094 0 9.53223 2.0791 5.71289 5.85413C2.87891 8.65576 0.991211 12.1429 0.205078 15.937C2.8623 11.1681 7.99707 7.92932 13.8828 7.92932C22.4053 7.92932 29.3535 14.7189 29.4844 23.1138C29.4863 23.1941 29.4873 23.2745 29.4873 23.3552C29.4873 28.5214 25.2354 32.7244 20.0098 32.7244C14.7842 32.7244 10.5322 28.5214 10.5322 23.3552C10.5322 22.7205 10.5967 22.1003 10.7188 21.5006C9.40918 23.3969 8.6416 25.6871 8.6416 28.1517C8.6416 34.5758 13.8516 39.8195 20.3135 39.9714C25.6006 39.8949 30.5596 37.8251 34.3066 34.1208C38.126 30.3457 40.2285 25.3264 40.2285 19.9875C40.2285 14.6486 38.126 9.62939 34.3066 5.85413Z" fill="#FBFBFB" fill-opacity="1.000000" fill-rule="nonzero"/>
		<path id="Vector" d="M23.8984 14.8114C21.4697 12.0328 17.8799 10.2715 13.8828 10.2715C6.58496 10.2715 0.647461 16.1407 0.647461 23.3551C0.647461 25.1812 1.02539 26.9591 1.75293 28.6007C2.73145 30.6233 4.06152 32.4885 5.71289 34.1207C6.85547 35.2507 8.1123 36.2275 9.45605 37.0433C7.46582 34.6106 6.27246 31.5165 6.27246 28.1515C6.27246 21.4016 11.0732 15.7401 17.4766 14.3263C18.2832 14.1049 19.1318 13.986 20.0098 13.986C20.0996 13.986 20.1895 13.9875 20.2793 13.99C20.3867 13.9877 20.4941 13.986 20.6016 13.986L20.6016 14.0048C21.7695 14.0764 22.8818 14.3574 23.8984 14.8114Z" fill="#FBFBFB" fill-opacity="1.000000" fill-rule="nonzero"/>
	</g>
</svg>
