<svg width="32.074219" height="45.699951" viewBox="0 0 32.0742 45.7" fill="none" xmlns="http://www.w3.org/2000/svg" xmlns:xlink="http://www.w3.org/1999/xlink">
	<desc>
			Created with Pixso.
	</desc>
	<defs/>
	<path id="Vector" d="M23.4033 35.1278L8.66992 35.1278M23.4033 37.5834C23.4033 39.8716 23.4033 41.0157 23.0303 41.9183C22.5312 43.1217 21.5752 44.0778 20.3721 44.5762C19.4697 44.95 18.3252 44.95 16.0371 44.95C13.749 44.95 12.6045 44.95 11.7021 44.5762C10.499 44.0778 9.54297 43.1217 9.04395 41.9183C8.66992 41.0157 8.66992 39.8716 8.66992 37.5834L8.66992 35.1278L8.66992 32.6543C8.66992 31.8677 8.42285 31.101 7.96387 30.4626L3.78809 24.6632C-3.40039 14.679 3.73438 0.75 16.0371 0.75C28.3398 0.75 35.4746 14.679 28.2861 24.6632L24.1104 30.4626C23.6514 31.101 23.4033 31.8677 23.4033 32.6543L23.4033 35.1278L23.4033 37.5834ZM19.7207 21.6222L16.0371 27.7611L12.3535 21.6222" stroke="#FBFBFB" stroke-opacity="1.000000" stroke-width="1.500000" stroke-linejoin="round" stroke-linecap="round"/>
</svg>
