<svg width="339.088867" height="215.070068" viewBox="0 0 339.089 215.07" fill="none" xmlns="http://www.w3.org/2000/svg" xmlns:xlink="http://www.w3.org/1999/xlink">
	<desc>
			Created with Pixso.
	</desc>
	<defs/>
	<path id="Vector" d="M237.013 215.07L33.3633 215.07C28.9785 215.066 24.6367 214.136 20.5869 212.333C16.5371 210.531 12.8584 207.891 9.75977 204.564C6.66211 201.238 4.20508 197.29 2.53027 192.946C0.856445 188.601 -0.00390625 183.946 0 179.246L0 35.5743C0.0537109 26.1248 3.5918 17.0814 9.8418 10.4171C16.0918 3.75269 24.5479 0.00805664 33.3633 0L77.5664 0C78.0381 0 78.4902 0.200684 78.8232 0.557983C79.1572 0.915283 79.3438 1.3999 79.3438 1.90515C79.3438 2.41052 79.1572 2.89514 78.8232 3.25244C78.4902 3.60974 78.0381 3.81042 77.5664 3.81042L33.3633 3.81042C25.46 3.81873 17.8828 7.18762 12.2939 13.1779C6.70605 19.1681 3.5625 27.2903 3.55469 35.7617L3.55469 179.433C3.5625 187.905 6.70605 196.027 12.2939 202.017C17.8828 208.007 25.46 211.376 33.3633 211.385L237.013 211.385C240.94 211.38 244.829 210.545 248.456 208.926C252.082 207.307 255.374 204.937 258.144 201.951C260.913 198.965 263.105 195.422 264.595 191.526C266.084 187.629 266.84 183.456 266.821 179.246L266.821 125.962C266.817 125.71 266.86 125.458 266.948 125.224C267.035 124.989 267.166 124.775 267.331 124.595C267.497 124.415 267.694 124.272 267.911 124.174C268.129 124.076 268.362 124.026 268.599 124.026L337.511 124.026C337.947 124.086 338.348 124.314 338.638 124.667C338.929 125.021 339.089 125.476 339.089 125.947C339.089 126.418 338.929 126.873 338.638 127.226C338.348 127.58 337.947 127.808 337.511 127.868L270.347 127.868L270.347 179.246C270.347 188.731 266.838 197.829 260.589 204.544C254.34 211.26 245.861 215.045 237.013 215.07Z" fill="#F4F4F4" fill-opacity="1.000000" fill-rule="evenodd"/>
</svg>
