<svg width="147.535156" height="53.976135" viewBox="0 0 147.535 53.9761" fill="none" xmlns="http://www.w3.org/2000/svg" xmlns:xlink="http://www.w3.org/1999/xlink">
	<desc>
			Created with Pixso.
	</desc>
	<defs>
		<clipPath id="clip162_1020">
			<rect id="6496714814b331014c589cab_client-04" width="147.534729" height="53.976120" fill="white" fill-opacity="0"/>
		</clipPath>
	</defs>
	<rect id="6496714814b331014c589cab_client-04" width="147.534729" height="53.976120" fill="#FFFFFF" fill-opacity="0"/>
	<g clip-path="url(#clip162_1020)">
		<path id="Vector" d="M53.1914 35.3297C51.5234 35.3297 50.084 35.0026 48.8086 34.3483C47.5322 33.694 46.5508 32.7454 45.8643 31.535C45.1768 30.3246 44.8174 28.8853 44.8174 27.2496C44.8174 25.614 45.1768 24.1746 45.8643 22.9642C46.5508 21.7211 47.5322 20.8052 48.8086 20.1509C50.084 19.4967 51.5566 19.1368 53.1914 19.1368C54.3037 19.1368 55.3184 19.2677 56.1689 19.4967C57.0518 19.7256 57.8369 20.0855 58.5566 20.5762L58.5566 23.782C57.9023 23.2587 57.1504 22.8661 56.332 22.6371C55.5146 22.3754 54.5654 22.2446 53.4863 22.2446C52.5049 22.2446 51.5889 22.4409 50.8037 22.8661C50.0186 23.2587 49.3975 23.8475 48.9395 24.5999C48.4814 25.3523 48.252 26.2355 48.252 27.2496C48.252 28.2637 48.4482 29.1797 48.874 29.9321C49.2988 30.6844 49.8877 31.2733 50.6729 31.6985C51.458 32.1238 52.3418 32.3201 53.3223 32.3201C54.2383 32.3201 55.0234 32.1566 55.7109 31.8294L55.7109 28.8198L53.1914 28.8198L53.1914 26.3337L58.9492 26.3337L58.9492 33.7922C57.5098 34.839 55.5801 35.3297 53.1914 35.3297Z" fill="#FBFBFB" fill-opacity="1.000000" fill-rule="nonzero"/>
		<path id="Vector" d="M59.7676 24.3709L63.0059 24.3709L63.0059 25.9084C63.4316 25.385 64.0205 24.9924 64.8057 24.7308C65.5576 24.4363 66.4414 24.3055 67.4229 24.3055L67.4229 26.8571C66.4082 26.8571 65.4922 27.0206 64.707 27.3151C63.9219 27.6095 63.3984 28.1002 63.1045 28.7217L63.1045 35.0026L59.7676 35.0026L59.7676 24.3709Z" fill="#FBFBFB" fill-opacity="1.000000" fill-rule="nonzero"/>
		<path id="Vector" d="M73.833 35.3297C71.8047 35.3297 70.2021 34.8391 69.0244 33.8577C67.8467 32.8763 67.2578 31.4696 67.2578 29.7031C67.2578 27.9366 67.7812 26.5627 68.7949 25.5486C69.8418 24.5345 71.3467 24.0111 73.2773 24.0111C74.5527 24.0111 75.6318 24.2401 76.5156 24.7308C77.3984 25.1888 78.0859 25.8757 78.5439 26.6935C79.002 27.5114 79.2305 28.46 79.2305 29.5068L79.2305 30.8481L70.4639 30.8481C70.6924 32.222 71.9688 32.8763 74.291 32.8763C74.9785 32.8763 75.665 32.8109 76.3848 32.7127C77.1045 32.5818 77.7256 32.4183 78.2822 32.222L78.2822 34.5773C77.7588 34.8063 77.1045 34.9699 76.2861 35.1008C75.4688 35.2643 74.6514 35.3297 73.833 35.3297ZM76.0898 28.7217C76.0576 28.0021 75.7959 27.4786 75.3047 27.0861C74.8145 26.6935 74.1602 26.4973 73.2773 26.4973C72.4268 26.4973 71.7725 26.6935 71.2812 27.0861C70.791 27.4786 70.5293 28.0348 70.4961 28.7217L76.0898 28.7217Z" fill="#FBFBFB" fill-opacity="1.000000" fill-rule="nonzero"/>
		<path id="Vector" d="M86.1006 35.3297C84.0723 35.3297 82.4697 34.8391 81.292 33.8577C80.1143 32.8763 79.5254 31.4696 79.5254 29.7031C79.5254 27.9366 80.0488 26.5627 81.0625 25.5486C82.1094 24.5345 83.6143 24.0111 85.5449 24.0111C86.8203 24.0111 87.8994 24.2401 88.7832 24.7308C89.666 25.1888 90.3535 25.8757 90.8115 26.6935C91.2695 27.5114 91.498 28.46 91.498 29.5068L91.498 30.8481L82.7314 30.8481C82.96 32.222 84.2363 32.8763 86.5586 32.8763C87.2461 32.8763 87.9326 32.8109 88.6523 32.7127C89.3721 32.5818 89.9932 32.4183 90.5498 32.222L90.5498 34.5773C90.0264 34.8063 89.3721 34.9699 88.5537 35.1008C87.7363 35.2643 86.9189 35.3297 86.1006 35.3297ZM88.3574 28.7217C88.3252 28.0021 88.0635 27.4786 87.5723 27.0861C87.082 26.6935 86.4277 26.4973 85.5449 26.4973C84.6943 26.4973 84.04 26.6935 83.5488 27.0861C83.0586 27.4786 82.7969 28.0348 82.7637 28.7217L88.3574 28.7217Z" fill="#FBFBFB" fill-opacity="1.000000" fill-rule="nonzero"/>
		<path id="Vector" d="M92.2832 24.3709L95.5215 24.3709L95.5215 25.6794C96.0127 25.1233 96.6016 24.7307 97.2559 24.4691C97.9424 24.1746 98.6299 24.0438 99.3818 24.0438C100.821 24.0438 101.9 24.4363 102.62 25.2214C103.34 26.0065 103.7 27.0206 103.7 28.3619L103.7 35.0026L100.363 35.0026L100.363 28.7217C100.363 27.3478 99.7422 26.6608 98.4658 26.6608C97.9102 26.6608 97.3867 26.7916 96.8955 27.0861C96.4053 27.3478 95.9795 27.7403 95.6523 28.2964L95.6523 35.0026L92.3154 35.0026L92.3154 24.3709L92.2832 24.3709Z" fill="#FBFBFB" fill-opacity="1.000000" fill-rule="nonzero"/>
		<path id="Vector" d="M106.645 22.7352C106.121 22.7352 105.695 22.5717 105.336 22.2119C104.976 21.8847 104.812 21.4268 104.812 20.936C104.812 20.4454 104.976 20.0201 105.336 19.6602C105.695 19.3004 106.121 19.1368 106.645 19.1368C107.168 19.1368 107.593 19.3004 107.953 19.6602C108.312 19.9874 108.477 20.4127 108.477 20.936C108.477 21.4595 108.312 21.8847 107.953 22.2119C107.593 22.5717 107.168 22.7352 106.645 22.7352ZM104.943 24.3709L108.312 24.3709L108.312 35.0026L104.943 35.0026L104.943 24.3709Z" fill="#FBFBFB" fill-opacity="1.000000" fill-rule="nonzero"/>
		<path id="Vector" d="M114.037 35.3297C113.252 35.3297 112.369 35.2315 111.453 35.068C110.537 34.9044 109.85 34.6754 109.326 34.3483L109.326 31.7313C109.915 32.0911 110.635 32.3855 111.453 32.5818C112.271 32.8108 113.056 32.9089 113.743 32.9089C114.364 32.9089 114.79 32.8435 115.084 32.7454C115.379 32.6472 115.51 32.4509 115.51 32.1566C115.51 31.9276 115.444 31.764 115.28 31.6331C115.117 31.4695 114.855 31.3714 114.528 31.2406C114.201 31.1097 113.645 30.9462 112.893 30.7172C111.977 30.4554 111.289 30.1938 110.766 29.9321C110.275 29.6376 109.883 29.3105 109.621 28.8853C109.359 28.46 109.229 27.9366 109.229 27.2823C109.229 26.1701 109.653 25.3523 110.537 24.7961C111.42 24.2401 112.631 23.9456 114.136 23.9456C114.888 23.9456 115.641 24.011 116.426 24.1746C117.21 24.3382 117.832 24.5344 118.257 24.7634L118.257 27.3151C117.832 27.0206 117.275 26.7916 116.557 26.6281C115.869 26.4645 115.215 26.3664 114.561 26.3664C113.939 26.3664 113.481 26.4318 113.154 26.5299C112.827 26.6608 112.663 26.8571 112.663 27.1842C112.663 27.4786 112.827 27.6749 113.121 27.8384C113.448 28.002 114.037 28.1656 114.921 28.3945L115.379 28.4927C116.295 28.7544 117.047 29.0161 117.537 29.3432C118.061 29.6376 118.421 29.9975 118.617 30.4227C118.846 30.848 118.944 31.3714 118.944 31.993C118.944 32.9744 118.519 33.7595 117.668 34.3483C116.851 35.068 115.641 35.3297 114.037 35.3297Z" fill="#FBFBFB" fill-opacity="1.000000" fill-rule="nonzero"/>
		<path id="Vector" d="M119.73 18.6134L123.067 18.6134L123.067 25.5812C123.558 25.0578 124.146 24.6653 124.769 24.4363C125.39 24.1746 126.077 24.0437 126.797 24.0437C128.235 24.0437 129.315 24.4363 130.035 25.2214C130.755 26.0065 131.114 27.0206 131.114 28.3618L131.114 35.0025L127.777 35.0025L127.777 28.7217C127.777 27.3477 127.156 26.6608 125.881 26.6608C125.324 26.6608 124.801 26.7916 124.311 27.086C123.819 27.3477 123.395 27.7403 123.067 28.2964L123.067 35.0025L119.73 35.0025L119.73 18.6134Z" fill="#FBFBFB" fill-opacity="1.000000" fill-rule="nonzero"/>
		<path id="Vector" d="M33.3682 21.7538C33.3682 24.5671 31.0781 26.8571 28.2646 26.8571C25.4512 26.8571 23.1611 24.5671 23.1611 21.7538C23.1611 18.9406 25.4512 16.6506 28.2646 16.6506C31.0781 16.6506 33.3682 18.9406 33.3682 21.7538ZM16.3896 26.4972C21.9512 26.1373 26.792 30.2919 27.25 35.853C27.2832 36.4419 27.2832 36.998 27.25 37.5541C21.6895 37.9139 16.8477 33.7594 16.3896 28.1982C16.3574 27.6094 16.3574 27.0533 16.3896 26.4972ZM30.8486 37.3578C36.4102 36.8998 40.5645 32.0583 40.2051 26.4972C39.6484 26.4645 39.0928 26.4318 38.5039 26.4972C32.9424 26.9551 28.7881 31.7966 29.1475 37.3578C29.7041 37.3906 30.2598 37.3906 30.8486 37.3578Z" fill="#FBFBFB" fill-opacity="1.000000" fill-rule="evenodd"/>
	</g>
</svg>
