<svg width="147.535156" height="57.742981" viewBox="0 0 147.535 57.743" fill="none" xmlns="http://www.w3.org/2000/svg" xmlns:xlink="http://www.w3.org/1999/xlink">
	<desc>
			Created with Pixso.
	</desc>
	<defs>
		<clipPath id="clip162_1030">
			<rect id="64967154860a8ebaefe07573_client-05" width="147.534729" height="57.742992" fill="white" fill-opacity="0"/>
		</clipPath>
	</defs>
	<rect id="64967154860a8ebaefe07573_client-05" width="147.534729" height="57.742992" fill="#FFFFFF" fill-opacity="0"/>
	<g clip-path="url(#clip162_1030)">
		<path id="Vector" d="M51.333 32.2697L46.9121 32.2697L46.1943 34.3695L43.8457 34.3695L47.8242 23.2629L50.4209 23.2629L54.3994 34.3695L52.0518 34.3695L51.333 32.2697ZM50.7256 30.5015L49.123 25.86L47.5205 30.5015L50.7256 30.5015Z" fill="#FBFBFB" fill-opacity="1.000000" fill-rule="nonzero"/>
		<path id="Vector" d="M63.5713 25.5837L63.5713 34.3972L61.334 34.3972L61.334 33.292C61.0576 33.6788 60.6709 33.9827 60.2012 34.2037C59.7588 34.4247 59.2617 34.5353 58.709 34.5353C58.0186 34.5353 57.4102 34.3972 56.8857 34.0933C56.3604 33.7893 55.9463 33.3749 55.6426 32.7947C55.3379 32.2145 55.2002 31.5515 55.2002 30.7502L55.2002 25.5837L57.4102 25.5837L57.4102 30.4187C57.4102 31.1094 57.5762 31.6619 57.9355 32.0488C58.2949 32.4079 58.7646 32.6013 59.3721 32.6013C59.9795 32.6013 60.4775 32.4079 60.8086 32.0488C61.168 31.6619 61.334 31.137 61.334 30.4187L61.334 25.5837L63.5713 25.5837Z" fill="#FBFBFB" fill-opacity="1.000000" fill-rule="nonzero"/>
		<path id="Vector" d="M67.7158 27.4072L67.7158 31.662C67.7158 31.9659 67.7715 32.1869 67.9092 32.325C68.0479 32.4632 68.2959 32.5184 68.6279 32.5184L69.6504 32.5184L69.6504 34.3972L68.2412 34.3972C66.3623 34.3972 65.4229 33.4854 65.4229 31.662L65.4229 27.4072L64.373 27.4072L64.373 25.5837L65.4229 25.5837L65.4229 23.4011L67.6611 23.4011L67.6611 25.5837L69.6221 25.5837L69.6221 27.4072L67.7158 27.4072Z" fill="#FBFBFB" fill-opacity="1.000000" fill-rule="nonzero"/>
		<path id="Vector" d="M74.5684 34.5353C73.7119 34.5353 72.9658 34.3419 72.2754 33.9828C71.585 33.5959 71.0596 33.071 70.6729 32.3803C70.2861 31.6896 70.0928 30.8884 70.0928 30.0043C70.0928 29.0926 70.2861 28.319 70.6729 27.6283C71.0869 26.9376 71.6123 26.4126 72.3027 26.0535C72.9941 25.6667 73.7676 25.4733 74.5957 25.4733C75.4531 25.4733 76.1982 25.6667 76.8896 26.0535C77.5801 26.4126 78.1045 26.9652 78.5195 27.6283C78.9336 28.319 79.127 29.1202 79.127 30.0043C79.127 30.916 78.9336 31.6896 78.5195 32.3803C78.1045 33.071 77.5801 33.5959 76.8613 33.9828C76.1982 34.3419 75.4248 34.5353 74.5684 34.5353ZM74.5684 32.6014C74.9834 32.6014 75.3418 32.5185 75.7012 32.3251C76.0605 32.1317 76.3369 31.8278 76.5576 31.441C76.7783 31.0542 76.8613 30.5845 76.8613 30.0043C76.8613 29.1755 76.6406 28.54 76.1982 28.0703C75.7568 27.6283 75.2314 27.3796 74.5957 27.3796C73.9609 27.3796 73.4355 27.6006 72.9941 28.0703C72.5791 28.5124 72.3584 29.1478 72.3584 30.0043C72.3584 30.8608 72.5518 31.4962 72.9658 31.9383C73.4082 32.3803 73.9326 32.6014 74.5684 32.6014Z" fill="#FBFBFB" fill-opacity="1.000000" fill-rule="nonzero"/>
		<path id="Vector" d="M91.0889 25.4456C92.167 25.4456 93.0508 25.7772 93.6865 26.4402C94.3496 27.1033 94.6807 28.015 94.6807 29.2031L94.6807 34.3695L92.4707 34.3695L92.4707 29.507C92.4707 28.8163 92.3047 28.2913 91.9453 27.9321C91.5869 27.573 91.1172 27.3796 90.5088 27.3796C89.9014 27.3796 89.4316 27.573 89.0723 27.9321C88.7129 28.2913 88.5479 28.8163 88.5479 29.507L88.5479 34.3695L86.3096 34.3695L86.3096 29.507C86.3096 28.8163 86.1436 28.2913 85.7842 27.9321C85.4258 27.573 84.9561 27.3796 84.3477 27.3796C83.7402 27.3796 83.2432 27.573 82.8838 27.9321C82.5244 28.2913 82.3584 28.8163 82.3584 29.507L82.3584 34.3695L80.1484 34.3695L80.1484 25.5837L82.3584 25.5837L82.3584 26.6613C82.6348 26.3021 83.0215 25.9982 83.4639 25.7772C83.9062 25.5562 84.4033 25.4733 84.9561 25.4733C85.6465 25.4733 86.2539 25.6114 86.8066 25.9153C87.3594 26.1916 87.7734 26.606 88.0498 27.1586C88.3262 26.6613 88.7412 26.2468 89.293 25.9429C89.8457 25.6114 90.4541 25.4456 91.0889 25.4456Z" fill="#FBFBFB" fill-opacity="1.000000" fill-rule="nonzero"/>
		<path id="Vector" d="M95.5928 29.949C95.5928 29.0649 95.7588 28.2637 96.1182 27.573C96.4766 26.8823 96.9463 26.3574 97.5547 25.9982C98.1621 25.639 98.8525 25.4456 99.5986 25.4456C100.262 25.4456 100.814 25.5837 101.312 25.8324C101.81 26.1087 102.196 26.4402 102.5 26.827L102.5 25.5837L104.737 25.5837L104.737 34.3972L102.5 34.3972L102.5 33.0986C102.224 33.5131 101.81 33.8446 101.312 34.1209C100.814 34.3972 100.234 34.5077 99.5713 34.5077C98.8252 34.5077 98.1621 34.3143 97.5264 33.9275C96.9189 33.5407 96.4492 33.0157 96.0898 32.3251C95.7588 31.662 95.5928 30.8608 95.5928 29.949ZM102.5 29.9766C102.5 29.4241 102.39 28.9821 102.196 28.5952C101.975 28.2084 101.698 27.9045 101.34 27.7111C100.98 27.4901 100.594 27.4072 100.179 27.4072C99.7646 27.4072 99.3779 27.5178 99.0459 27.7111C98.6875 27.9045 98.4111 28.2084 98.1895 28.5952C97.9688 28.9821 97.8857 29.4241 97.8857 29.949C97.8857 30.4739 97.9961 30.9437 98.1895 31.358C98.4111 31.7449 98.6875 32.0488 99.0459 32.2698C99.4053 32.4908 99.792 32.6013 100.179 32.6013C100.594 32.6013 100.98 32.4908 101.34 32.2974C101.698 32.0764 101.975 31.8001 102.196 31.4133C102.417 30.9989 102.5 30.5292 102.5 29.9766Z" fill="#FBFBFB" fill-opacity="1.000000" fill-rule="nonzero"/>
		<path id="Vector" d="M108.882 27.4072L108.882 31.662C108.882 31.9659 108.938 32.1869 109.075 32.325C109.214 32.4632 109.462 32.5184 109.794 32.5184L110.816 32.5184L110.816 34.3972L109.407 34.3972C107.528 34.3972 106.589 33.4854 106.589 31.662L106.589 27.4072L105.539 27.4072L105.539 25.5837L106.589 25.5837L106.589 23.4011L108.827 23.4011L108.827 25.5837L110.788 25.5837L110.788 27.4072L108.882 27.4072Z" fill="#FBFBFB" fill-opacity="1.000000" fill-rule="nonzero"/>
		<path id="Vector" d="M112.944 24.5339C112.557 24.5339 112.226 24.4233 111.949 24.1747C111.7 23.9261 111.562 23.5945 111.562 23.2354C111.562 22.8762 111.7 22.5447 111.949 22.3236C112.226 22.075 112.529 21.9368 112.944 21.9368C113.358 21.9368 113.662 22.075 113.911 22.3236C114.188 22.5723 114.298 22.8762 114.298 23.2354C114.298 23.5945 114.159 23.9261 113.911 24.1747C113.662 24.4233 113.331 24.5339 112.944 24.5339ZM114.049 25.5837L114.049 34.3972L111.839 34.3972L111.839 25.5837L114.049 25.5837Z" fill="#FBFBFB" fill-opacity="1.000000" fill-rule="nonzero"/>
		<path id="Vector" d="M119.52 34.5353C118.663 34.5353 117.917 34.3419 117.227 33.9828C116.536 33.5959 116.011 33.071 115.624 32.3803C115.237 31.6896 115.044 30.8884 115.044 30.0043C115.044 29.0926 115.237 28.319 115.624 27.6283C116.038 26.9376 116.563 26.4126 117.254 26.0535C117.945 25.6667 118.719 25.4733 119.547 25.4733C120.404 25.4733 121.149 25.6667 121.841 26.0535C122.531 26.4126 123.056 26.9652 123.471 27.6283C123.885 28.319 124.078 29.1202 124.078 30.0043C124.078 30.916 123.885 31.6896 123.471 32.3803C123.056 33.071 122.531 33.5959 121.812 33.9828C121.149 34.3419 120.376 34.5353 119.52 34.5353ZM119.52 32.6014C119.935 32.6014 120.293 32.5185 120.652 32.3251C121.012 32.1317 121.288 31.8278 121.509 31.441C121.729 31.0542 121.812 30.5845 121.812 30.0043C121.812 29.1755 121.592 28.54 121.149 28.0703C120.708 27.6283 120.183 27.3796 119.547 27.3796C118.912 27.3796 118.387 27.6006 117.945 28.0703C117.53 28.5124 117.31 29.1478 117.31 30.0043C117.31 30.8608 117.503 31.4962 117.917 31.9383C118.332 32.3803 118.884 32.6014 119.52 32.6014Z" fill="#FBFBFB" fill-opacity="1.000000" fill-rule="nonzero"/>
		<path id="Vector" d="M129.962 25.4456C131.012 25.4456 131.868 25.7772 132.504 26.4402C133.14 27.1033 133.471 28.015 133.471 29.2031L133.471 34.3695L131.261 34.3695L131.261 29.507C131.261 28.8163 131.095 28.2637 130.735 27.9045C130.377 27.5178 129.907 27.3243 129.299 27.3243C128.691 27.3243 128.194 27.5178 127.835 27.9045C127.476 28.2637 127.31 28.8163 127.31 29.507L127.31 34.3695L125.1 34.3695L125.1 25.5837L127.31 25.5837L127.31 26.6889C127.614 26.3021 127.973 25.9982 128.442 25.8048C128.912 25.5562 129.409 25.4456 129.962 25.4456Z" fill="#FBFBFB" fill-opacity="1.000000" fill-rule="nonzero"/>
		<path id="Vector" d="M25.6387 25.3627L25.6387 22.6828C22.3789 22.7933 19.7539 25.4733 19.7539 28.761L19.7539 29.1754L14.0352 29.1754L14.0352 28.761C14.0352 22.3237 19.2012 17.0743 25.6113 16.9637L25.6113 14.0628L35.4189 19.8094L25.6387 25.3627Z" fill="#FBFBFB" fill-opacity="1.000000" fill-rule="nonzero"/>
		<path id="Vector" d="M30.6387 28.761L30.6387 29.1754C30.6387 32.4632 28.042 35.1431 24.7539 35.2536L24.7539 32.6013L14.9463 38.127L24.7539 43.8736L24.7539 40.9727C31.1641 40.8621 36.3301 35.6128 36.3301 29.1754L36.3301 28.761L30.6387 28.761Z" fill="#FBFBFB" fill-opacity="1.000000" fill-rule="nonzero"/>
	</g>
</svg>
