<svg width="147.535156" height="62.228333" viewBox="0 0 147.535 62.2283" fill="none" xmlns="http://www.w3.org/2000/svg" xmlns:xlink="http://www.w3.org/1999/xlink">
	<desc>
			Created with Pixso.
	</desc>
	<defs>
		<clipPath id="clip162_1062">
			<rect id="6496714260a0e31c39d2f577_client-03" width="147.534729" height="62.228336" fill="white" fill-opacity="0"/>
		</clipPath>
	</defs>
	<rect id="6496714260a0e31c39d2f577_client-03" width="147.534729" height="62.228336" fill="#FFFFFF" fill-opacity="0"/>
	<g clip-path="url(#clip162_1062)">
		<path id="Vector" d="M41.0049 39.9745C41.1699 41.9114 40.5107 43.9307 39.0273 45.4143C37.5439 46.8979 35.5244 47.5985 33.5869 47.4337C33.4229 45.4968 34.082 43.4774 35.5654 41.9938C37.0488 40.5103 39.0684 39.8096 41.0049 39.9745Z" fill="#FBFBFB" fill-opacity="1.000000" fill-rule="nonzero"/>
		<path id="Vector" d="M37.4609 37.2546C35.5244 39.3564 32.6807 40.5927 29.6309 40.4279C26.54 40.3042 23.8613 38.7794 22.1309 36.554C24.0674 34.4523 26.9111 33.2159 29.9609 33.3808C33.0518 33.5045 35.7305 35.0292 37.4609 37.2546Z" fill="#FBFBFB" fill-opacity="1.000000" fill-rule="nonzero"/>
		<path id="Vector" d="M20.9766 30.5784C21.3887 25.7155 23.8613 21.0175 28.1475 17.9267C32.4336 14.8359 37.667 14.0117 42.4062 15.1655C41.9941 20.0284 39.5215 24.7264 35.2354 27.8173C30.9492 30.9081 25.7158 31.7323 20.9766 30.5784Z" fill="#FBFBFB" fill-opacity="1.000000" fill-rule="nonzero"/>
		<path id="Vector" d="M99.9775 24.5617L99.9775 27.5289L101.75 27.5289L101.75 43.0654L104.923 43.0654L104.923 27.5701L109.085 27.5701L109.085 24.6029L104.923 24.6029L104.923 21.5533C104.923 20.6879 105.005 19.9873 105.17 19.4515C105.335 18.9158 105.541 18.5449 105.788 18.3389C106.077 18.0916 106.406 17.968 106.818 17.968C107.148 17.968 107.478 18.0504 107.808 18.174C108.179 18.2977 108.508 18.5449 108.756 18.9982L110.486 16.402C110.321 16.1547 110.033 15.9074 109.703 15.6602C109.374 15.4129 109.003 15.2068 108.55 15.0832C108.096 14.9183 107.602 14.8359 107.024 14.8359C105.912 14.8359 104.964 15.0832 104.181 15.5365C103.398 15.9899 102.821 16.6904 102.409 17.597C101.997 18.5037 101.791 19.6988 101.791 21.1412L101.791 24.5617L99.9775 24.5617Z" fill="#FBFBFB" fill-opacity="1.000000" fill-rule="nonzero"/>
		<path id="Vector" d="M50.2363 18.5449L50.2363 43.1065L64.4951 43.1065L64.4951 39.9333L53.6152 39.9333L53.6152 18.5449L50.2363 18.5449Z" fill="#FBFBFB" fill-opacity="1.000000" fill-rule="nonzero"/>
		<path id="Vector" d="M72.9434 43.4774C74.8799 43.4774 76.5693 43.1065 78.0117 42.3235C79.4541 41.5405 80.6494 40.3866 81.5977 38.8206L79.042 37.2134C78.3828 38.3261 77.5586 39.1503 76.6113 39.7272C75.6631 40.263 74.5508 40.5103 73.3145 40.5103C72.0781 40.5103 71.0059 40.263 70.1406 39.7272C69.2754 39.1915 68.6162 38.4497 68.1631 37.4194C67.833 36.6777 67.627 35.771 67.5449 34.782L81.8857 34.782L81.8857 34.4111C81.9268 34.205 81.9268 33.999 81.9268 33.8341C81.9268 31.8972 81.5977 30.2488 80.8965 28.8476C80.1963 27.4464 79.207 26.3749 77.9297 25.6332C76.6523 24.8502 75.127 24.4792 73.3555 24.4792C71.583 24.4792 69.9756 24.8914 68.6162 25.6744C67.2559 26.4573 66.2256 27.5701 65.4424 29.0125C64.7012 30.4548 64.3301 32.1033 64.3301 33.999C64.3301 35.8535 64.7012 37.5431 65.4014 38.9443C66.1436 40.3866 67.1738 41.4993 68.4512 42.3235C69.7285 43.0653 71.2539 43.4774 72.9434 43.4774ZM68.2451 30.2488C67.998 30.7845 67.792 31.4026 67.668 32.062L78.4658 32.062C78.4238 31.1966 78.1768 30.4136 77.8057 29.7542C77.3936 28.9713 76.7754 28.3531 76.0342 27.8997C75.251 27.4464 74.3857 27.2404 73.3555 27.2404C72.1602 27.2404 71.0889 27.4876 70.2236 28.0234C69.3574 28.5179 68.6982 29.2597 68.2451 30.2488Z" fill="#FBFBFB" fill-opacity="1.000000" fill-rule="evenodd"/>
		<path id="Vector" d="M94.8271 33.0923C94.332 32.7626 93.7139 32.4741 92.9316 32.2269C92.0654 31.8972 90.9531 31.7324 89.6348 31.7324C87.4092 31.7324 85.6367 32.2681 84.3594 33.3396C83.123 34.4111 82.5049 35.8122 82.5049 37.5843C82.5049 38.8206 82.793 39.8921 83.3701 40.7575C83.9473 41.6229 84.7305 42.2823 85.6777 42.7769C86.667 43.2302 87.6973 43.4362 88.8105 43.4362C89.7988 43.4362 90.8291 43.2714 91.8184 42.9005C92.8486 42.5296 93.7139 41.9526 94.374 41.2108C94.5381 41.046 94.7031 40.84 94.8271 40.6339L94.8271 43.0653L98 43.0653L98 30.0015C98 28.8064 97.7119 27.8173 97.0938 26.9931C96.5166 26.1689 95.6924 25.5507 94.5801 25.1386C93.5078 24.6853 92.2715 24.4792 90.8711 24.4792C89.1807 24.4792 87.7383 24.7265 86.502 25.2211C85.3076 25.7156 84.3594 26.2101 83.7002 26.7458L85.2246 29.0948C85.5137 28.8888 85.9258 28.6415 86.4199 28.3531C86.9141 28.0646 87.5322 27.8173 88.2334 27.6113C88.9746 27.4052 89.7988 27.2816 90.7061 27.2816C91.2412 27.2816 91.7773 27.3228 92.2715 27.4464C92.7666 27.5701 93.2197 27.7349 93.5908 27.941C94.0029 28.1882 94.291 28.5179 94.4971 28.93C94.7031 29.3421 94.8271 29.8367 94.8271 30.4548L94.8271 33.0923ZM86.2139 35.771C85.8838 36.2656 85.7197 36.8013 85.7197 37.4606C85.7197 38.1613 85.8838 38.7382 86.2139 39.2327C86.5439 39.7272 87.0381 40.0981 87.6152 40.3866C88.2334 40.6339 88.8926 40.7575 89.6758 40.7575C90.665 40.7575 91.5303 40.5515 92.2715 40.1805C93.0547 39.7684 93.6729 39.2327 94.126 38.5322C94.6211 37.7903 94.8271 36.9661 94.8271 36.0182L94.8271 35.3177C94.332 35.0704 93.7969 34.8644 93.3018 34.7407C92.3135 34.4523 91.2832 34.2874 90.1699 34.2874C89.1396 34.2874 88.3154 34.4111 87.6562 34.6995C86.9971 34.9056 86.502 35.2765 86.2139 35.771Z" fill="#FBFBFB" fill-opacity="1.000000" fill-rule="evenodd"/>
		<path id="Vector" d="M122.851 42.3235C121.408 43.1065 119.718 43.4774 117.781 43.4774C116.092 43.4774 114.566 43.0653 113.248 42.2823C111.971 41.4581 110.94 40.3453 110.198 38.903C109.498 37.4606 109.127 35.8122 109.127 33.9577C109.127 32.062 109.498 30.4136 110.239 28.9712C111.022 27.5288 112.053 26.4573 113.413 25.6331C114.772 24.8501 116.38 24.438 118.152 24.438C119.966 24.438 121.49 24.8089 122.727 25.5919C124.004 26.3337 124.993 27.4052 125.693 28.8063C126.395 30.2075 126.724 31.856 126.724 33.7928C126.724 33.9577 126.724 34.1638 126.683 34.3698L126.683 34.7407L112.342 34.7407C112.424 35.7297 112.63 36.6364 112.96 37.3782C113.413 38.3672 114.072 39.1503 114.938 39.686C115.803 40.2217 116.875 40.469 118.111 40.469C119.348 40.469 120.46 40.2217 121.408 39.686C122.355 39.1503 123.18 38.2849 123.839 37.1721L126.395 38.7794C125.487 40.3866 124.293 41.5405 122.851 42.3235ZM112.506 32.062C112.63 31.4026 112.795 30.7845 113.083 30.2487C113.578 29.2596 114.237 28.5179 115.062 28.0233C115.927 27.4876 116.957 27.2403 118.193 27.2403C119.224 27.2403 120.13 27.4464 120.872 27.8997C121.655 28.353 122.232 28.9712 122.645 29.7542C123.015 30.4136 123.221 31.1966 123.304 32.062L112.506 32.062Z" fill="#FBFBFB" fill-opacity="1.000000" fill-rule="evenodd"/>
	</g>
</svg>
