<svg width="221.301758" height="70.000000" viewBox="0 0 221.302 70" fill="none" xmlns="http://www.w3.org/2000/svg" xmlns:xlink="http://www.w3.org/1999/xlink">
	<desc>
			Created with Pixso.
	</desc>
	<defs>
		<clipPath id="clip162_1043">
			<rect id="654868347a4896c258e54657_client-02" width="221.302094" height="70.000000" fill="white" fill-opacity="0"/>
		</clipPath>
	</defs>
	<rect id="654868347a4896c258e54657_client-02" width="221.302094" height="70.000000" fill="#FFFFFF" fill-opacity="0"/>
	<g clip-path="url(#clip162_1043)">
		<path id="Vector" d="M49.958 41.0744C56.8262 37.2215 65.5146 39.6073 69.4512 46.4265L63.5264 49.8474C56.6279 53.8304 47.8047 51.4169 43.8936 44.4771L49.958 41.0744Z" fill="#FBFBFB" fill-opacity="1.000000" fill-rule="nonzero"/>
		<path id="Vector" d="M47.4463 38.3732C51.3691 31.5785 60.0576 29.2504 66.8525 33.1734L63.3008 39.3251C59.3779 46.1199 50.6895 48.4481 43.8945 44.5248L47.4463 38.3732Z" fill="#FBFBFB" fill-opacity="1.000000" fill-rule="nonzero"/>
		<path id="Vector" d="M43.5869 37.7151C43.5869 29.4742 50.2676 22.7936 58.5078 22.7936L58.5078 29.757C58.5078 37.9977 51.8271 44.6783 43.5869 44.6783L43.5869 37.7151Z" fill="#FBFBFB" fill-opacity="1.000000" fill-rule="nonzero"/>
		<path id="Vector" d="M40.0654 37.9988C36.1426 31.204 38.4707 22.5154 45.2656 18.5924L48.8174 24.744C52.7402 31.5389 50.4121 40.2275 43.6172 44.1504L40.0654 37.9988Z" fill="#FBFBFB" fill-opacity="1.000000" fill-rule="nonzero"/>
		<path id="Vector" d="M43.5879 36.7202C43.5879 29.0289 37.3525 22.7936 29.6611 22.7936L29.6611 30.7517C29.6611 38.4432 35.8965 44.6783 43.5879 44.6783L43.5879 36.7202Z" fill="#FBFBFB" fill-opacity="1.000000" fill-rule="nonzero"/>
		<path id="Vector" d="M40.5889 38.3732C36.666 31.5785 27.9775 29.2504 21.1826 33.1734L24.7344 39.3251C28.6572 46.1199 37.3457 48.4481 44.1406 44.5248L40.5889 38.3732Z" fill="#FBFBFB" fill-opacity="1.000000" fill-rule="nonzero"/>
		<path id="Vector" d="M38.0762 41.0744C31.209 37.2215 22.5205 39.6073 18.583 46.4265L24.5078 49.8474C31.4072 53.8304 40.2305 51.4169 44.1416 44.4771L38.0762 41.0744Z" fill="#FBFBFB" fill-opacity="1.000000" fill-rule="nonzero"/>
		<path id="Vector" d="M94.7715 28.1487L94.7715 43.5707L91.6787 43.5707L91.6787 33.5397L87.5469 43.5707L85.2051 43.5707L81.0508 33.5397L81.0508 43.5707L77.958 43.5707L77.958 28.1487L81.4707 28.1487L86.376 39.6157L91.2812 28.1487L94.7715 28.1487Z" fill="#FBFBFB" fill-opacity="1.000000" fill-rule="nonzero"/>
		<path id="Vector" d="M98.5146 29.8721C97.9697 29.8721 97.5127 29.7027 97.1445 29.364C96.791 29.0104 96.6143 28.5759 96.6143 28.0604C96.6143 27.5449 96.791 27.1177 97.1445 26.7789C97.5127 26.4254 97.9697 26.2487 98.5146 26.2487C99.0596 26.2487 99.5088 26.4254 99.8623 26.7789C100.23 27.1177 100.414 27.5449 100.414 28.0604C100.414 28.5759 100.23 29.0104 99.8623 29.364C99.5088 29.7027 99.0596 29.8721 98.5146 29.8721ZM100.039 31.3303L100.039 43.5707L96.9453 43.5707L96.9453 31.3303L100.039 31.3303Z" fill="#FBFBFB" fill-opacity="1.000000" fill-rule="nonzero"/>
		<path id="Vector" d="M108.995 31.1536C110.453 31.1536 111.632 31.6176 112.53 32.5455C113.429 33.4587 113.878 34.7402 113.878 36.3899L113.878 43.5707L110.785 43.5707L110.785 36.8099C110.785 35.8375 110.542 35.0937 110.056 34.5782C109.569 34.0479 108.907 33.7828 108.067 33.7828C107.213 33.7828 106.535 34.0479 106.034 34.5782C105.548 35.0937 105.306 35.8375 105.306 36.8099L105.306 43.5707L102.212 43.5707L102.212 31.3303L105.306 31.3303L105.306 32.8548C105.718 32.3246 106.24 31.9121 106.874 31.6176C107.522 31.3082 108.229 31.1536 108.995 31.1536Z" fill="#FBFBFB" fill-opacity="1.000000" fill-rule="nonzero"/>
		<path id="Vector" d="M115.14 37.4062C115.14 36.1689 115.383 35.0715 115.869 34.1141C116.37 33.1567 117.047 32.4203 117.901 31.9047C118.756 31.3892 119.706 31.1314 120.752 31.1314C121.547 31.1314 122.306 31.3082 123.027 31.6617C123.749 32.0005 124.323 32.4571 124.751 33.0316L124.751 27.2208L127.888 27.2208L127.888 43.5707L124.751 43.5707L124.751 41.7587C124.367 42.3628 123.83 42.8488 123.138 43.217C122.445 43.5852 121.643 43.7693 120.729 43.7693C119.698 43.7693 118.756 43.5043 117.901 42.9738C117.047 42.4437 116.37 41.7 115.869 40.7426C115.383 39.7703 115.14 38.6583 115.14 37.4062ZM124.772 37.4504C124.772 36.6993 124.625 36.0585 124.331 35.5282C124.036 34.9832 123.639 34.5707 123.138 34.2909C122.637 33.9963 122.1 33.8491 121.525 33.8491C120.95 33.8491 120.42 33.989 119.935 34.2688C119.448 34.5486 119.051 34.9611 118.741 35.5061C118.446 36.0364 118.299 36.6698 118.299 37.4062C118.299 38.1428 118.446 38.7906 118.741 39.3506C119.051 39.8956 119.448 40.3153 119.935 40.6099C120.435 40.9045 120.965 41.0518 121.525 41.0518C122.1 41.0518 122.637 40.9117 123.138 40.6321C123.639 40.3375 124.036 39.9248 124.331 39.3947C124.625 38.8497 124.772 38.2014 124.772 37.4504Z" fill="#FBFBFB" fill-opacity="1.000000" fill-rule="nonzero"/>
		<path id="Vector" d="M135.637 33.8712L133.494 33.8712L133.494 43.5707L130.356 43.5707L130.356 33.8712L128.965 33.8712L128.965 31.3303L130.356 31.3303L130.356 30.7117C130.356 29.2093 130.784 28.1046 131.638 27.3976C132.492 26.6906 133.781 26.3591 135.505 26.4033L135.505 29.0104C134.753 28.9957 134.23 29.1209 133.936 29.386C133.642 29.6512 133.494 30.1299 133.494 30.8221L133.494 31.3303L135.637 31.3303L135.637 33.8712Z" fill="#FBFBFB" fill-opacity="1.000000" fill-rule="nonzero"/>
		<path id="Vector" d="M148.313 31.3303L148.313 43.5707L145.198 43.5707L145.198 42.0237C144.8 42.5543 144.277 42.9739 143.629 43.2834C142.996 43.578 142.304 43.7253 141.553 43.7253C140.595 43.7253 139.748 43.5262 139.012 43.1288C138.275 42.7161 137.693 42.1196 137.267 41.3391C136.854 40.5436 136.647 39.6011 136.647 38.511L136.647 31.3303L139.74 31.3303L139.74 38.0692C139.74 39.0411 139.983 39.7925 140.47 40.3226C140.956 40.8381 141.619 41.0959 142.458 41.0959C143.312 41.0959 143.982 40.8381 144.469 40.3226C144.955 39.7925 145.198 39.0411 145.198 38.0692L145.198 31.3303L148.313 31.3303Z" fill="#FBFBFB" fill-opacity="1.000000" fill-rule="nonzero"/>
		<path id="Vector" d="M153.575 27.2208L153.575 43.5707L150.482 43.5707L150.482 27.2208L153.575 27.2208Z" fill="#FBFBFB" fill-opacity="1.000000" fill-rule="nonzero"/>
		<path id="Vector" d="M162.53 31.1536C163.988 31.1536 165.167 31.6176 166.065 32.5455C166.964 33.4587 167.413 34.7402 167.413 36.3899L167.413 43.5707L164.32 43.5707L164.32 36.8099C164.32 35.8375 164.077 35.0937 163.591 34.5782C163.104 34.0479 162.442 33.7828 161.603 33.7828C160.748 33.7828 160.07 34.0479 159.569 34.5782C159.083 35.0937 158.841 35.8375 158.841 36.8099L158.841 43.5707L155.747 43.5707L155.747 31.3303L158.841 31.3303L158.841 32.8548C159.253 32.3246 159.775 31.9121 160.409 31.6176C161.058 31.3082 161.764 31.1536 162.53 31.1536Z" fill="#FBFBFB" fill-opacity="1.000000" fill-rule="nonzero"/>
		<path id="Vector" d="M180.85 37.1854C180.85 37.6273 180.82 38.025 180.762 38.3783L171.813 38.3783C171.887 39.262 172.196 39.9544 172.741 40.4553C173.286 40.9559 173.956 41.2064 174.752 41.2064C175.9 41.2064 176.718 40.7131 177.204 39.7261L180.54 39.7261C180.188 40.9045 179.51 41.8765 178.508 42.6425C177.507 43.3939 176.276 43.7694 174.818 43.7694C173.64 43.7694 172.579 43.5116 171.637 42.9961C170.709 42.466 169.979 41.7219 169.449 40.7645C168.934 39.8071 168.676 38.7024 168.676 37.4504C168.676 36.1837 168.934 35.0716 169.449 34.1142C169.965 33.1567 170.687 32.4203 171.614 31.9047C172.542 31.3892 173.61 31.1315 174.818 31.1315C175.981 31.1315 177.02 31.3818 177.934 31.8826C178.861 32.3835 179.576 33.0978 180.077 34.0258C180.592 34.939 180.85 35.9922 180.85 37.1854ZM177.646 36.3015C177.632 35.5062 177.344 34.8727 176.784 34.4014C176.225 33.9153 175.54 33.6723 174.729 33.6723C173.964 33.6723 173.315 33.908 172.785 34.3793C172.27 34.8359 171.953 35.4767 171.835 36.3015L177.646 36.3015Z" fill="#FBFBFB" fill-opacity="1.000000" fill-rule="nonzero"/>
		<path id="Vector" d="M186.907 43.7694C185.905 43.7694 185.007 43.5926 184.212 43.2393C183.417 42.871 182.783 42.3774 182.312 41.7587C181.855 41.14 181.604 40.4553 181.561 39.7039L184.676 39.7039C184.735 40.1754 184.963 40.5658 185.361 40.8749C185.773 41.1845 186.281 41.3391 186.886 41.3391C187.475 41.3391 187.932 41.2213 188.255 40.9854C188.594 40.7499 188.764 40.4481 188.764 40.0798C188.764 39.6821 188.558 39.3875 188.145 39.196C187.747 38.9897 187.106 38.7687 186.223 38.5329C185.31 38.312 184.559 38.0837 183.969 37.8482C183.395 37.6123 182.894 37.2517 182.467 36.7654C182.054 36.2794 181.848 35.624 181.848 34.7991C181.848 34.1216 182.039 33.5029 182.423 32.9432C182.819 32.3835 183.38 31.9416 184.102 31.6176C184.838 31.2935 185.699 31.1315 186.687 31.1315C188.145 31.1315 189.309 31.4997 190.178 32.2362C191.046 32.9579 191.525 33.9374 191.613 35.1747L188.652 35.1747C188.608 34.6887 188.402 34.3057 188.034 34.0258C187.681 33.7313 187.202 33.5839 186.598 33.5839C186.038 33.5839 185.604 33.6871 185.295 33.8932C185 34.0995 184.853 34.3867 184.853 34.7549C184.853 35.1674 185.059 35.4841 185.472 35.705C185.884 35.9112 186.524 36.1248 187.394 36.3457C188.277 36.5667 189.007 36.7949 189.581 37.0308C190.155 37.2663 190.648 37.6345 191.062 38.1355C191.488 38.6215 191.709 39.2697 191.724 40.0798C191.724 40.7867 191.525 41.42 191.128 41.9797C190.744 42.5397 190.185 42.9815 189.448 43.3053C188.727 43.6148 187.88 43.7694 186.907 43.7694Z" fill="#FBFBFB" fill-opacity="1.000000" fill-rule="nonzero"/>
		<path id="Vector" d="M198.062 43.7694C197.061 43.7694 196.163 43.5926 195.367 43.2393C194.572 42.871 193.938 42.3774 193.467 41.7587C193.011 41.14 192.76 40.4553 192.716 39.7039L195.831 39.7039C195.891 40.1754 196.118 40.5658 196.517 40.8749C196.929 41.1845 197.437 41.3391 198.041 41.3391C198.63 41.3391 199.087 41.2213 199.41 40.9854C199.749 40.7499 199.919 40.4481 199.919 40.0798C199.919 39.6821 199.713 39.3875 199.3 39.196C198.902 38.9897 198.262 38.7687 197.378 38.5329C196.465 38.312 195.714 38.0837 195.124 37.8482C194.55 37.6123 194.049 37.2517 193.622 36.7654C193.21 36.2794 193.003 35.624 193.003 34.7991C193.003 34.1216 193.194 33.5029 193.578 32.9432C193.975 32.3835 194.535 31.9416 195.257 31.6176C195.993 31.2935 196.854 31.1315 197.842 31.1315C199.3 31.1315 200.464 31.4997 201.333 32.2362C202.201 32.9579 202.681 33.9374 202.769 35.1747L199.808 35.1747C199.764 34.6887 199.558 34.3057 199.189 34.0258C198.836 33.7313 198.357 33.5839 197.753 33.5839C197.193 33.5839 196.759 33.6871 196.45 33.8932C196.155 34.0995 196.008 34.3867 196.008 34.7549C196.008 35.1674 196.214 35.4841 196.627 35.705C197.039 35.9112 197.68 36.1248 198.549 36.3457C199.433 36.5667 200.162 36.7949 200.736 37.0308C201.311 37.2663 201.804 37.6345 202.217 38.1355C202.644 38.6215 202.864 39.2697 202.879 40.0798C202.879 40.7867 202.681 41.42 202.283 41.9797C201.899 42.5397 201.34 42.9815 200.604 43.3053C199.882 43.6148 199.035 43.7694 198.062 43.7694Z" fill="#FBFBFB" fill-opacity="1.000000" fill-rule="nonzero"/>
	</g>
</svg>
